<svg width="512" height="512" viewBox="0 0 24 24" xmlns="http://www.w3.org/2000/svg">
    <defs>
        <clipPath id="heart-clip-path">
            <path d="M12 21.35l-1.45-1.32C5.4 15.36 2 12.28 2 8.5 2 5.42 4.42 3 7.5 3c1.74 0 3.41.81 4.5 2.09C13.09 3.81 14.76 3 16.5 3 19.58 3 22 5.42 22 8.5c0 3.78-3.4 6.86-8.55 11.54L12 21.35z"/>
        </clipPath>
        <path id="star7" d="M0 -10 L1.96 -4.05 L7.82 -6.23 L4.38 -1 L9.75 2.22 L3.52 2.8 L4.34 9 L0 4.5 L-4.34 9 L-3.52 2.8 L-9.75 2.22 L-4.38 -1 L-7.82 -6.23 L-1.96 -4.05 Z" />
    </defs>
    <g clip-path="url(#heart-clip-path)" style="filter: drop-shadow(0px 1px 1px rgba(0,0,0,0.3));">
        <rect x="0" y="0" width="24" height="8" fill="#000000"/>
        <rect x="0" y="8" width="24" height="8" fill="#FFFFFF"/>
        <rect x="0" y="16" width="24" height="8" fill="#007A3D"/>
        <path d="M2 3 L12 12 L2 21 Z" fill="#CE1126"/>
        <use href="#star7" fill="#FFFFFF" transform="translate(6 12) scale(0.35)" />
    </g>
</svg>