<svg width="512" height="512" viewBox="0 0 24 24" xmlns="http://www.w3.org/2000/svg">
    <defs>
        <linearGradient id="grad" x1="0%" y1="0%" x2="100%" y2="100%">
            <stop offset="0%" style="stop-color:#D9822B;" />
            <stop offset="100%" style="stop-color:#B46D24;" />
        </linearGradient>
    </defs>
    <path fill="url(#grad)" d="M12 2L3 5v6c0 5.55 3.84 10.74 9 12 5.16-1.26 9-6.45 9-12V5l-9-3zm0 4.5c1.38 0 2.5 1.12 2.5 2.5 0 .7-.29 1.33-.76 1.78.6.61 1.26 1.25 1.26 2.22 0 1.66-1.34 3-3 3s-3-1.34-3-3c0-.97.66-1.61 1.26-2.22-.47-.45-.76-1.08-.76-1.78 0-1.38 1.12-2.5 2.5-2.5z" />
</svg>